<svg width="375" height="141" viewBox="0 0 375 141" fill="none" xmlns="http://www.w3.org/2000/svg">
<g clip-path="url(#clip0_410_15131)">
<line x1="329" y1="6" x2="351" y2="6" stroke="white" stroke-width="2" stroke-linecap="round"/>
<line x1="329" y1="16" x2="351" y2="16" stroke="white" stroke-width="2" stroke-linecap="round"/>
<line x1="329" y1="26" x2="351" y2="26" stroke="white" stroke-width="2" stroke-linecap="round"/>
<path fill-rule="evenodd" clip-rule="evenodd" d="M133.363 97.5059H212.002V72.5059H150.529C147.907 82.5985 141.741 91.3562 133.363 97.5059Z" fill="#D9D9D9"/>
<path fill-rule="evenodd" clip-rule="evenodd" d="M0 57.2358H18.9621C19.2739 52.2121 20.383 47.4009 22.1661 42.9238H0V57.2358Z" fill="#054C63"/>
<path fill-rule="evenodd" clip-rule="evenodd" d="M0 68.2948H19.5725C19.1252 65.7565 18.8837 63.1486 18.8655 60.4883H0V68.2948Z" fill="#FF5200"/>
<path fill-rule="evenodd" clip-rule="evenodd" d="M0 97.5687H37.5482C29.1121 91.1676 22.9027 82.052 20.2631 71.5469H0V97.5687Z" fill="#D9D9D9"/>
<path d="M85.6563 107.329C112.118 107.329 133.569 86.2129 133.569 60.1646C133.569 34.1163 112.118 13 85.6563 13C59.1949 13 37.7437 34.1163 37.7437 60.1646C37.7437 86.2129 59.1949 107.329 85.6563 107.329Z" fill="#0B3D91"/>
<path d="M82.8296 22.5873C83.1263 22.5873 83.3668 22.3506 83.3668 22.0585C83.3668 21.7665 83.1263 21.5298 82.8296 21.5298C82.533 21.5298 82.2925 21.7665 82.2925 22.0585C82.2925 22.3506 82.533 22.5873 82.8296 22.5873Z" fill="white"/>
<path d="M88.344 23.2911C88.6407 23.2911 88.8812 23.0544 88.8812 22.7624C88.8812 22.4704 88.6407 22.2336 88.344 22.2336C88.0474 22.2336 87.8069 22.4704 87.8069 22.7624C87.8069 23.0544 88.0474 23.2911 88.344 23.2911Z" fill="white"/>
<path d="M95.5789 32.8793C95.8755 32.8793 96.116 32.6426 96.116 32.3505C96.116 32.0585 95.8755 31.8218 95.5789 31.8218C95.2822 31.8218 95.0417 32.0585 95.0417 32.3505C95.0417 32.6426 95.2822 32.8793 95.5789 32.8793Z" fill="white"/>
<path d="M55.9007 82.2304C56.1973 82.2304 56.4378 81.9936 56.4378 81.7016C56.4378 81.4096 56.1973 81.1729 55.9007 81.1729C55.604 81.1729 55.3635 81.4096 55.3635 81.7016C55.3635 81.9936 55.604 82.2304 55.9007 82.2304Z" fill="white"/>
<path d="M57.2984 86.4603C57.595 86.4603 57.8355 86.2236 57.8355 85.9316C57.8355 85.6396 57.595 85.4028 57.2984 85.4028C57.0017 85.4028 56.7612 85.6396 56.7612 85.9316C56.7612 86.2236 57.0017 86.4603 57.2984 86.4603Z" fill="white"/>
<path d="M50.6376 82.7312C50.8598 82.7312 51.0399 82.5539 51.0399 82.3352C51.0399 82.1165 50.8598 81.9392 50.6376 81.9392C50.4154 81.9392 50.2354 82.1165 50.2354 82.3352C50.2354 82.5539 50.4154 82.7312 50.6376 82.7312Z" fill="white"/>
<path d="M72.4803 91.0431C72.7032 91.0431 72.8838 90.8653 72.8838 90.6459C72.8838 90.4266 72.7032 90.2488 72.4803 90.2488C72.2575 90.2488 72.0769 90.4266 72.0769 90.6459C72.0769 90.8653 72.2575 91.0431 72.4803 91.0431Z" fill="white"/>
<path d="M106.742 84.0361C106.964 84.0361 107.144 83.8588 107.144 83.6401C107.144 83.4214 106.964 83.2441 106.742 83.2441C106.52 83.2441 106.34 83.4214 106.34 83.6401C106.34 83.8588 106.52 84.0361 106.742 84.0361Z" fill="white"/>
<path d="M116.697 73.3919C116.92 73.3919 117.101 73.2141 117.101 72.9948C117.101 72.7755 116.92 72.5977 116.697 72.5977C116.474 72.5977 116.294 72.7755 116.294 72.9948C116.294 73.2141 116.474 73.3919 116.697 73.3919Z" fill="white"/>
<path d="M67.8974 35.8396C68.1195 35.8396 68.2996 35.6623 68.2996 35.4436C68.2996 35.2249 68.1195 35.0476 67.8974 35.0476C67.6752 35.0476 67.4951 35.2249 67.4951 35.4436C67.4951 35.6623 67.6752 35.8396 67.8974 35.8396Z" fill="white"/>
<path d="M78.8551 27.9174C79.0773 27.9174 79.2574 27.7402 79.2574 27.5215C79.2574 27.3028 79.0773 27.1255 78.8551 27.1255C78.633 27.1255 78.4529 27.3028 78.4529 27.5215C78.4529 27.7402 78.633 27.9174 78.8551 27.9174Z" fill="white"/>
<path d="M77.6657 27.1425C77.8878 27.1425 78.0679 26.9653 78.0679 26.7466C78.0679 26.5279 77.8878 26.3506 77.6657 26.3506C77.4435 26.3506 77.2634 26.5279 77.2634 26.7466C77.2634 26.9653 77.4435 27.1425 77.6657 27.1425Z" fill="white"/>
<path d="M76.5907 26.3674C76.8129 26.3674 76.993 26.1901 76.993 25.9714C76.993 25.7527 76.8129 25.5754 76.5907 25.5754C76.3686 25.5754 76.1885 25.7527 76.1885 25.9714C76.1885 26.1901 76.3686 26.3674 76.5907 26.3674Z" fill="white"/>
<path d="M69.6152 37.8852C69.8373 37.8852 70.0174 37.7079 70.0174 37.4892C70.0174 37.2705 69.8373 37.0933 69.6152 37.0933C69.393 37.0933 69.2129 37.2705 69.2129 37.4892C69.2129 37.7079 69.393 37.8852 69.6152 37.8852Z" fill="white"/>
<path d="M85.757 17.2724C85.9792 17.2724 86.1593 17.0951 86.1593 16.8764C86.1593 16.6578 85.9792 16.4805 85.757 16.4805C85.5348 16.4805 85.3547 16.6578 85.3547 16.8764C85.3547 17.0951 85.5348 17.2724 85.757 17.2724Z" fill="white"/>
<path d="M88.4074 28.6938C88.6295 28.6938 88.8096 28.5165 88.8096 28.2978C88.8096 28.0791 88.6295 27.9019 88.4074 27.9019C88.1852 27.9019 88.0051 28.0791 88.0051 28.2978C88.0051 28.5165 88.1852 28.6938 88.4074 28.6938Z" fill="white"/>
<path d="M84.2272 26.4638C84.4494 26.4638 84.6295 26.2865 84.6295 26.0679C84.6295 25.8492 84.4494 25.6719 84.2272 25.6719C84.005 25.6719 83.825 25.8492 83.825 26.0679C83.825 26.2865 84.005 26.4638 84.2272 26.4638Z" fill="white"/>
<path d="M77.0661 29.4956C77.2882 29.4956 77.4683 29.3183 77.4683 29.0996C77.4683 28.8809 77.2882 28.7036 77.0661 28.7036C76.8439 28.7036 76.6638 28.8809 76.6638 29.0996C76.6638 29.3183 76.8439 29.4956 77.0661 29.4956Z" fill="white"/>
<path d="M108.648 94.4968C108.87 94.4968 109.05 94.3195 109.05 94.1008C109.05 93.8821 108.87 93.7048 108.648 93.7048C108.426 93.7048 108.246 93.8821 108.246 94.1008C108.246 94.3195 108.426 94.4968 108.648 94.4968Z" fill="white"/>
<path d="M55.2206 84.7777C55.4434 84.7777 55.624 84.5999 55.624 84.3806C55.624 84.1612 55.4434 83.9834 55.2206 83.9834C54.9978 83.9834 54.8171 84.1612 54.8171 84.3806C54.8171 84.5999 54.9978 84.7777 55.2206 84.7777Z" fill="white"/>
<path d="M83.2245 89.8895C83.4473 89.8895 83.6279 89.7117 83.6279 89.4923C83.6279 89.273 83.4473 89.0952 83.2245 89.0952C83.0017 89.0952 82.821 89.273 82.821 89.4923C82.821 89.7117 83.0017 89.8895 83.2245 89.8895Z" fill="white"/>
<path d="M63.5558 84.4601C63.7786 84.4601 63.9592 84.2823 63.9592 84.0629C63.9592 83.8436 63.7786 83.6658 63.5558 83.6658C63.333 83.6658 63.1523 83.8436 63.1523 84.0629C63.1523 84.2823 63.333 84.4601 63.5558 84.4601Z" fill="white"/>
<path d="M67.0372 90.0573C67.2601 90.0573 67.4407 89.8794 67.4407 89.6601C67.4407 89.4407 67.2601 89.2629 67.0372 89.2629C66.8144 89.2629 66.6338 89.4407 66.6338 89.6601C66.6338 89.8794 66.8144 90.0573 67.0372 90.0573Z" fill="white"/>
<path d="M92.6767 86.5302C92.8988 86.5302 93.0789 86.3529 93.0789 86.1343C93.0789 85.9156 92.8988 85.7383 92.6767 85.7383C92.4545 85.7383 92.2744 85.9156 92.2744 86.1343C92.2744 86.3529 92.4545 86.5302 92.6767 86.5302Z" fill="white"/>
<path d="M106.813 78.6779C107.036 78.6779 107.216 78.5006 107.216 78.282C107.216 78.0633 107.036 77.886 106.813 77.886C106.591 77.886 106.411 78.0633 106.411 78.282C106.411 78.5006 106.591 78.6779 106.813 78.6779Z" fill="white"/>
<path d="M117.529 83.4985C117.752 83.4985 117.932 83.3212 117.932 83.1025C117.932 82.8838 117.752 82.7065 117.529 82.7065C117.307 82.7065 117.127 82.8838 117.127 83.1025C117.127 83.3212 117.307 83.4985 117.529 83.4985Z" fill="white"/>
<path d="M121.181 85.7983C121.403 85.7983 121.583 85.621 121.583 85.4023C121.583 85.1836 121.403 85.0063 121.181 85.0063C120.959 85.0063 120.779 85.1836 120.779 85.4023C120.779 85.621 120.959 85.7983 121.181 85.7983Z" fill="white"/>
<path d="M121.781 79.5241C122.003 79.5241 122.183 79.3468 122.183 79.1281C122.183 78.9095 122.003 78.7322 121.781 78.7322C121.559 78.7322 121.379 78.9095 121.379 79.1281C121.379 79.3468 121.559 79.5241 121.781 79.5241Z" fill="white"/>
<path d="M68.4972 70.6413C68.7194 70.6413 68.8995 70.464 68.8995 70.2453C68.8995 70.0267 68.7194 69.8494 68.4972 69.8494C68.2751 69.8494 68.095 70.0267 68.095 70.2453C68.095 70.464 68.2751 70.6413 68.4972 70.6413Z" fill="white"/>
<path d="M68.6497 79.8683C68.9463 79.8683 69.1868 79.6316 69.1868 79.3395C69.1868 79.0475 68.9463 78.8108 68.6497 78.8108C68.353 78.8108 68.1125 79.0475 68.1125 79.3395C68.1125 79.6316 68.353 79.8683 68.6497 79.8683Z" fill="white"/>
<path d="M71.8721 86.5658C72.1688 86.5658 72.4092 86.3291 72.4092 86.0371C72.4092 85.745 72.1688 85.5083 71.8721 85.5083C71.5754 85.5083 71.335 85.745 71.335 86.0371C71.335 86.3291 71.5754 86.5658 71.8721 86.5658Z" fill="white"/>
<path d="M110.475 79.5863C110.772 79.5863 111.013 79.3496 111.013 79.0576C111.013 78.7655 110.772 78.5288 110.475 78.5288C110.179 78.5288 109.938 78.7655 109.938 79.0576C109.938 79.3496 110.179 79.5863 110.475 79.5863Z" fill="white"/>
<path d="M124.368 78.8112C124.665 78.8112 124.905 78.5744 124.905 78.2824C124.905 77.9904 124.665 77.7537 124.368 77.7537C124.071 77.7537 123.831 77.9904 123.831 78.2824C123.831 78.5744 124.071 78.8112 124.368 78.8112Z" fill="white"/>
<path d="M117.494 75.9208C117.791 75.9208 118.031 75.6841 118.031 75.392C118.031 75.1 117.791 74.8633 117.494 74.8633C117.198 74.8633 116.957 75.1 116.957 75.392C116.957 75.6841 117.198 75.9208 117.494 75.9208Z" fill="white"/>
<path d="M110.475 76.2028C110.772 76.2028 111.013 75.966 111.013 75.674C111.013 75.382 110.772 75.1453 110.475 75.1453C110.179 75.1453 109.938 75.382 109.938 75.674C109.938 75.966 110.179 76.2028 110.475 76.2028Z" fill="white"/>
<path d="M95.9978 21.7271L97.3334 21.6014L96.0002 21.5274C95.9584 21.2736 95.7519 21.075 95.4917 21.0421L95.3639 19.7332L95.2876 21.0527C95.0464 21.1056 94.8614 21.3041 94.8316 21.5509L93.4661 21.6731L94.8411 21.7459C94.8913 21.9727 95.0775 22.1501 95.3114 22.1924L95.4356 23.5413L95.5084 22.1948C95.7555 22.1537 95.9512 21.9668 95.9978 21.7271Z" fill="white"/>
<path d="M73.455 36.3646L74.7907 36.2389L73.4574 36.1648C73.4168 35.911 73.2092 35.7125 72.9489 35.6796L72.8212 34.3706L72.746 35.6901C72.5037 35.743 72.3187 35.9416 72.2889 36.1883L70.9233 36.3105L72.2984 36.3834C72.3485 36.6102 72.5347 36.7876 72.7687 36.8299L72.8928 38.1788L72.9668 36.8322C73.2139 36.7923 73.4097 36.6043 73.455 36.3646Z" fill="white"/>
<path d="M123.391 75.067L124.727 74.9413L123.393 74.8672C123.353 74.6134 123.145 74.4149 122.885 74.382L122.757 73.073L122.682 74.3925C122.441 74.4454 122.256 74.644 122.226 74.8907L120.86 75.0129L122.235 75.0858C122.286 75.3126 122.472 75.49 122.706 75.5323L122.83 76.8812L122.904 75.5346C123.149 75.4947 123.344 75.3078 123.391 75.067Z" fill="white"/>
<path d="M68.9419 95.3038L70.2775 95.1781L68.9442 95.1041C68.9025 94.8503 68.696 94.6517 68.4358 94.6188L68.308 93.311L68.2328 94.6294C67.9905 94.6823 67.8055 94.8808 67.7757 95.1276L66.4102 95.2498L67.7852 95.3226C67.8354 95.5494 68.0216 95.728 68.2555 95.7691L68.3797 97.1181L68.4537 95.7715C68.6995 95.7315 68.8965 95.5435 68.9419 95.3038Z" fill="white"/>
<path d="M119.147 85.4325L120.483 85.3067L119.149 85.2327C119.109 84.9789 118.901 84.7803 118.641 84.7474L118.513 83.4385L118.438 84.7568C118.197 84.8097 118.012 85.0083 117.982 85.255L116.616 85.3772L117.992 85.4501C118.042 85.6769 118.228 85.8543 118.462 85.8966L118.586 87.2455L118.66 85.8989C118.905 85.8602 119.102 85.6722 119.147 85.4325Z" fill="white"/>
<path d="M97.0199 48.8659C91.4492 50.9974 86.0157 52.8997 81.431 54.312C72.1146 57.1837 46.6245 64.9576 31.2266 74.7571L32.5157 75.2506C41.8977 70.0336 47.996 68.3944 53.8579 66.5791C60.232 64.6051 80.8377 59.858 90.1684 57.273C93.3208 56.4 97.0127 55.2567 100.923 53.8655C100.014 52.6165 99.0538 51.364 98.044 50.1138C97.7062 49.6919 97.3637 49.276 97.0199 48.8659ZM103.826 58.1002C102.477 58.9968 101.347 59.7123 100.555 60.1635C95.9719 62.7721 73.6258 77.7886 68.5421 81.2431C63.4584 84.6976 49.3484 97.8106 45.1945 101.618L45.0513 103.167C58.4439 91.3234 62.6455 88.4024 67.9691 84.4156C74.558 79.4806 88.1882 70.3508 92.8207 67.4251C97.2491 64.6286 101.243 62.0565 104.827 59.7029C104.769 59.6066 104.71 59.5102 104.652 59.4127C104.382 58.9768 104.107 58.5397 103.826 58.1002ZM124.761 36.3345C118.237 40.0992 107.954 44.6429 97.9772 48.4981C98.2159 48.786 98.4534 49.0762 98.6898 49.3688C99.8046 50.7506 100.856 52.1418 101.846 53.5342C109.688 50.6907 118.293 46.8743 125.121 42.2553C121.868 45.2892 111.114 53.2005 104.558 57.6103C104.896 58.1519 105.223 58.6936 105.539 59.2329C115.472 52.6894 122.157 47.873 126.052 44.6523C131.423 40.2108 143.67 30.2703 148.325 16.9458C140.159 27.1695 130.505 33.0198 124.761 36.3345Z" fill="#FC3D21"/>
<path d="M79.4928 71.8421C78.4365 70.5332 76.9754 68.7801 75.8785 67.4206C74.4115 65.6028 73.0543 63.7663 71.8106 61.9321C71.4047 62.032 71.0001 62.1319 70.5955 62.2318C72.097 64.5383 73.7646 66.8413 75.5813 69.0926C76.9086 70.7376 78.1154 72.0618 78.7337 72.8855C78.859 73.0524 79.1073 73.4213 79.4427 73.9125C79.8294 73.654 80.2198 73.3931 80.6137 73.1299C80.2329 72.7222 79.8569 72.2933 79.4928 71.8421ZM87.2037 78.7323C86.336 77.9239 84.2316 76.5738 82.0412 74.5481C81.5578 74.8748 81.0696 75.2061 80.5802 75.5398C81.9947 77.5021 83.9212 79.912 85.43 80.6147C87.7027 81.6745 88.315 79.7687 87.2037 78.7323ZM98.6901 49.369C86.1665 33.8519 70.8676 25.3273 64.2716 30.4867C59.1485 34.4935 61.2517 46.2036 68.3132 58.5047C68.6785 58.3813 69.0401 58.2603 69.3982 58.1404C62.271 46.1554 60.3206 35.0175 65.1525 31.2376C71.2245 26.4882 85.886 35.0457 98.0467 50.1128C100.564 53.2312 102.777 56.3615 104.651 59.4129C111.827 71.1042 114.03 81.6769 109.071 85.9927C107.554 87.3134 102.918 87.8315 96.8447 85.1408C96.76 85.2454 96.8961 85.5285 97.0023 85.5979C102.245 87.6729 107.266 88.4637 109.802 86.4815C115.894 81.7157 111.214 64.8861 98.6901 49.369Z" fill="white"/>
<path d="M44.979 51.2107H53.0002L59.7324 62.4555C59.7324 62.4555 59.7324 54.3127 59.7324 53.6782C59.7324 52.6912 58.4611 51.4046 58.0135 51.2107C58.5507 51.2107 63.2417 51.2107 63.5639 51.2107C63.2238 51.2988 62.1316 52.6031 62.1316 53.6782C62.1316 54.2069 62.1316 66.0157 62.1316 66.5797C62.1316 67.3728 63.2954 68.4656 63.8504 68.8886H56.1156L49.2761 57.591C49.2761 57.591 49.2761 66.0157 49.2761 66.474C49.2761 67.3552 50.1534 68.2012 51.0666 68.9238H45.158C45.9996 68.5713 46.8053 67.461 46.8769 66.5797C46.9485 65.6985 46.8769 54.3303 46.8769 53.8368C46.8769 52.7617 45.8205 51.8804 44.979 51.2107Z" fill="white"/>
<path d="M118.353 68.8886H129.024C128.433 68.7476 127.771 68.0602 127.413 67.1437C127.054 66.2272 121.397 51.2107 121.397 51.2107H117.339C116.189 52.0261 114.956 52.8862 113.639 53.7922C113.636 53.8251 113.632 53.858 113.626 53.8897C113.449 54.9472 110.274 66.2672 110.081 66.8265C109.812 67.602 108.434 68.4656 107.879 68.9238H113.626C113.053 68.2893 112.588 67.6725 112.695 66.9675C112.802 66.2625 113.125 64.8525 113.125 64.8525H119.069C119.338 65.5575 119.538 66.1908 119.642 66.7912C119.767 67.5138 119.015 68.3246 118.353 68.8886ZM113.662 62.5965L115.667 56.1457L118.317 62.5965H113.662ZM112.758 51.8546C113.053 51.6407 113.349 51.4257 113.644 51.2107H112.086C112.241 51.3517 112.498 51.5738 112.758 51.8546Z" fill="white"/>
<path d="M71.9445 66.9675C72.0519 66.2625 72.3742 64.8525 72.3742 64.8525H78.3185C78.5871 65.5575 78.7876 66.1908 78.8915 66.7912C79.0168 67.5138 78.2648 68.3246 77.6024 68.8886H86.9975C87.1932 68.7593 87.3878 68.6301 87.5824 68.502C87.2183 68.1848 86.8829 67.7089 86.6621 67.1437C86.304 66.2272 80.6461 51.2107 80.6461 51.2107H71.3358C71.7834 51.6161 73.0725 52.7088 72.8755 53.8897C72.7001 54.9472 69.5238 66.2672 69.3304 66.8265C69.0619 67.602 67.6832 68.4656 67.1282 68.9238H72.8755C72.3026 68.2893 71.8371 67.6725 71.9445 66.9675ZM74.9167 56.1457L77.5665 62.5965H72.9114L74.9167 56.1457Z" fill="white"/>
<path d="M104.396 59.9857C102.644 61.1349 100.795 62.3346 98.8471 63.5871C99.7209 64.0042 100.417 64.5283 100.484 65.2051C100.608 66.4764 98.0128 67.091 95.6673 66.8266C95.1982 66.7737 94.7374 66.6527 94.2982 66.4905C93.8112 66.7996 93.3194 67.1109 92.8205 67.4258C92.3132 67.7466 91.6972 68.1414 90.9942 68.5973V70.4221C91.4597 69.5232 92.4779 68.7183 93.2681 68.6772C93.6083 68.6596 94.79 69.7347 99.66 69.4703C102.023 69.3423 106.589 66.8618 106.517 64.0066C106.474 62.3193 105.579 61.0033 104.396 59.9857ZM90.993 64.3943V66.2532C91.4239 65.97 91.8488 65.6915 92.2654 65.4201C91.6101 64.9713 91.1458 64.5518 90.993 64.3943ZM102.731 58.819C102.278 58.5546 101.818 58.3231 101.378 58.1187C99.0859 57.0612 96.6867 56.8673 96.1853 55.4396C95.832 54.4327 96.8299 53.5009 99.2649 53.5361C101.7 53.5714 103.956 54.999 104.565 55.5102V50.9629C104.386 51.1391 103.6 52.0263 102.882 51.8794C101.503 51.5974 99.1575 51.2296 96.4718 51.2449C93.3922 51.2625 90.7423 53.6055 90.6528 56.5677C90.5275 60.7095 93.8935 61.8375 95.7914 62.4897C95.9872 62.5566 96.2104 62.6283 96.4527 62.7047C98.273 61.5391 99.7125 60.6414 100.555 60.1632C101.121 59.8424 101.862 59.3818 102.731 58.819Z" fill="white"/>
<path fill-rule="evenodd" clip-rule="evenodd" d="M375 43.5742V57.8862H151.958C151.646 52.8625 150.537 48.0513 148.754 43.5742H375Z" fill="#054C63"/>
<path fill-rule="evenodd" clip-rule="evenodd" d="M375 61.1406H152.051C152.033 63.8009 151.791 66.4089 151.344 68.9472H375V61.1406Z" fill="#FF5200"/>
<path fill-rule="evenodd" clip-rule="evenodd" d="M375 126.193H0V140.505H375V126.193Z" fill="#003355"/>
<path fill-rule="evenodd" clip-rule="evenodd" d="M375 72.5059H161V97.5059H375V72.5059Z" fill="#D9D9D9"/>
</g>
<defs>
<clipPath id="clip0_410_15131">
<rect width="375" height="141" fill="white"/>
</clipPath>
</defs>
</svg>
